<svg width="17" height="23" viewBox="0 0 17 23" fill="none" xmlns="http://www.w3.org/2000/svg">
<path d="M4.96899 5.81702V3.81702C4.96899 3.28658 5.17971 2.77788 5.55478 2.4028C5.92985 2.02773 6.43856 1.81702 6.96899 1.81702H10.969C11.4994 1.81702 12.0081 2.02773 12.3832 2.4028C12.7583 2.77788 12.969 3.28658 12.969 3.81702V5.81702M15.969 5.81702V19.817C15.969 20.3474 15.7583 20.8562 15.3832 21.2312C15.0081 21.6063 14.4994 21.817 13.969 21.817H3.96899C3.43856 21.817 2.92985 21.6063 2.55478 21.2312C2.17971 20.8562 1.96899 20.3474 1.96899 19.817V5.81702H15.969Z" stroke="black" stroke-width="2" stroke-linecap="round" stroke-linejoin="round"/>
<path d="M6.96899 10.817V16.817" stroke="black" stroke-width="2" stroke-linecap="round" stroke-linejoin="round"/>
<path d="M10.969 10.817V16.817" stroke="black" stroke-width="2" stroke-linecap="round" stroke-linejoin="round"/>
</svg>
